<svg id="Layer_1" data-name="Layer 1" xmlns="http://www.w3.org/2000/svg" viewBox="0 0 500 143.34"><defs><style>.cls-1{isolation:isolate;}.cls-2{fill:#633795;}.cls-3{fill:#ec008c;}.cls-4{fill:none;}</style></defs><title>Striker Logo Ideas Com true</title><g id="STRIKERSOFT_LOGO" data-name="STRIKERSOFT LOGO" class="cls-1"><g id="Logo"><path class="cls-2" d="M171,76.1V75.93l12.55-16.42c1.44-2,.63-3.58-1.79-3.58h-3.32a3.65,3.65,0,0,0-3.5,1.88l-11,14.71H157.4V40.95c0-2-1-3-2.87-3h-2.78a2.62,2.62,0,0,0-3,3V98.34a2.62,2.62,0,0,0,3,3h2.78c1.89,0,2.87-1,2.87-3V80h6.73L176.5,99.24A3.65,3.65,0,0,0,180,101.3h3.58c2.43,0,3.23-1.53,2-3.59Z"/><path class="cls-2" d="M43.61,54c0-5.47,4.84-8.88,11.39-8.88a22,22,0,0,1,11.66,3.68c1.53,0.9,3,1.07,4-.81l1.25-2.25c0.81-1.61.63-3-.89-4a27.49,27.49,0,0,0-15.87-4.84c-11.57,0-20.54,6.91-20.54,17.58,0,19.73,30.49,16.59,30.49,30.58,0,5.47-4.4,9.06-11.13,9.06S42.44,90.63,40.2,89c-1.7-1.08-3-.9-4,0.53L34.64,91.7c-1.34,1.8-.81,3,0.36,4.13a31.44,31.44,0,0,0,19,6.55c12.65,0,20.09-8.07,20.09-18C74.1,64,43.61,67.67,43.61,54"/><path class="cls-2" d="M125.84,55.57c-6.81,0-11.93,5.92-13.91,11.93h-0.18a21.8,21.8,0,0,0,.27-3.41V58.88a2.61,2.61,0,0,0-3-3h-2.51a2.65,2.65,0,0,0-3,3V98.34a2.65,2.65,0,0,0,3,3h2.78a2.62,2.62,0,0,0,3-3V82.56c0-9,4.31-18.56,13.18-18.56,2.06,0,3.23-1,3.23-3V58.53c0-2-.81-3-2.87-3"/><path class="cls-2" d="M96,93.86c-3.32-.27-8.61-1.62-8.61-10.23V63.46h8a2.63,2.63,0,0,0,2.87-3V59.34a2.65,2.65,0,0,0-3-3H87.37v-10a2.62,2.62,0,0,0-3-3h-2.6a2.65,2.65,0,0,0-3,3v10H75.62a2.65,2.65,0,0,0-3,3V60.5a2.63,2.63,0,0,0,2.87,3h3.14V85c0,11.48,7.89,16.68,16.86,16.68,2.42,0,3.59-.9,3.59-3V96.82c0-2.07-.81-2.78-3.14-3"/><path class="cls-2" d="M139.47,55.93h-2.78a2.65,2.65,0,0,0-3,3V98.34a2.65,2.65,0,0,0,3,3h2.78a2.62,2.62,0,0,0,3-3V58.88a2.62,2.62,0,0,0-3-3"/><path class="cls-2" d="M194.19,73.77c1.25-7.63,6.63-12.11,13.27-12.11,6,0,10.76,4.12,11,12.11h-24.3Zm13.45-18.93c-12.91,0-22.69,9.33-22.69,23.77,0,13.45,9.77,23.76,24,23.76a26.93,26.93,0,0,0,15.34-4.85,2.65,2.65,0,0,0,.9-3.94l-0.81-1.35c-1-1.7-2.33-1.89-4-1a18.62,18.62,0,0,1-10.85,3.58c-8.07,0-15.16-5.47-15.69-15.33h30.31a3,3,0,0,0,3-3c0-12.65-7-21.62-19.55-21.62"/><path class="cls-2" d="M320.84,94.84c-8.52,0-15.61-6.81-15.61-16.32s7.09-16.14,15.61-16.14,15.6,6.73,15.6,16.14-7,16.32-15.6,16.32m0-40c-13.54,0-24.39,10-24.39,23.68s10.85,23.85,24.39,23.85,24.48-10,24.48-23.85-10.94-23.68-24.48-23.68"/><path class="cls-2" d="M394.52,93.86c-3.32-.27-8.61-1.62-8.61-10.23V63.46h8a2.63,2.63,0,0,0,2.87-3V59.34a2.65,2.65,0,0,0-3-3h-7.89v-10a2.62,2.62,0,0,0-3-3h-2.6a2.65,2.65,0,0,0-3,3v10H360.44V54.58c0-8.43,5.29-9.24,8.61-9.42,2.06-.18,3.14-1,3.14-3V40.5a2.65,2.65,0,0,0-3-3h-1.08c-4.66,0-16.41,2.33-16.41,16.68v2.15h-2.87a2.69,2.69,0,0,0-3,3V60.5a2.69,2.69,0,0,0,3,3h2.87V98.34a2.65,2.65,0,0,0,3,3h2.78a2.62,2.62,0,0,0,3-3V63.46h16.77V85c0,11.48,7.89,16.68,16.86,16.68,2.42,0,3.59-.9,3.59-3V96.82c0-2.07-.81-2.78-3.14-3"/><path class="cls-2" d="M269.6,67.76c0-3.85,3.32-5.74,7.63-5.74a18,18,0,0,1,9.24,2.6c1.7,0.81,3,.63,3.94-1l0.81-1.35c0.9-1.61.63-3.13-1-3.94a23,23,0,0,0-12.55-3.5c-8.88,0-16.41,4.49-16.41,13.1,0,15.33,23.4,12.37,23.4,21.25,0,3.86-3.23,6-7.71,6a19.85,19.85,0,0,1-11.12-3.68c-1.8-1-3-.89-4.12.63l-0.9,1.26c-1,1.52-.9,3,0.63,4a25.32,25.32,0,0,0,15.25,4.93c9.78,0,16.32-5.65,16.32-13.36,0-15.42-23.4-12.19-23.4-21.25"/><path class="cls-2" d="M255.34,55.57c-6.82,0-11.92,5.92-13.9,11.93h-0.18a22.07,22.07,0,0,0,.27-3.41V58.88a2.61,2.61,0,0,0-3-3h-2.51a2.65,2.65,0,0,0-3,3V98.34a2.65,2.65,0,0,0,3,3h2.78a2.62,2.62,0,0,0,3-3V82.56c0-9,4.31-18.56,13.18-18.56,2.06,0,3.23-1,3.23-3V58.53c0-2-.81-3-2.87-3"/><path class="cls-2" d="M138.23,47.74A4.82,4.82,0,1,1,143,42.92a4.82,4.82,0,0,1-4.82,4.82"/><path class="cls-3" d="M430.3,74.17a2.68,2.68,0,0,0,2.2-1.28l22.18-39a0.78,0.78,0,0,0-.75-1.28H426.14A1.91,1.91,0,0,0,424.32,34l-9.51,38.74a1.09,1.09,0,0,0,1.12,1.43H430.3Z"/><path class="cls-3" d="M447.82,59.7a2.68,2.68,0,0,0-2.2,1.28l-22.18,39a0.78,0.78,0,0,0,.74,1.28h27.7a1.92,1.92,0,0,0,1.82-1.43l9.51-38.74a1.09,1.09,0,0,0-1.12-1.43H447.82Z"/></g><rect id="Border" class="cls-4" x="0.4" y="0.32" width="500" height="141.51"/></g><path class="cls-2" d="M111.84,123.33a2,2,0,0,0-1.15-1.7v-0.77a4,4,0,0,0-1-.22,1.31,1.31,0,0,0-1,.45c-2.31,4.24-8.28,12.14-8.28,17.91a5,5,0,0,0,1.77,2.41,1,1,0,0,1,.35-0.77v1a9.13,9.13,0,0,0,1.6.7,6.85,6.85,0,0,1,.71-3.54c0.93-2.24,1.47-4.43,2.6-6.32,0.07-.1.39-0.49-0.06-0.32-1.15,1.32-1.7,3.82-2.44,5.49a2,2,0,0,1-.36.74c-0.42-.13,0-0.64.1-0.9,0.71-1.83,1.25-4,2.51-5.84l1.25-.71-0.13-.39c1.48-.8,2-3,2.86-4.27h0.36a20.51,20.51,0,0,0,.29-3M104.39,139l-0.45,1.12c-0.19.33-.29,0-0.25-0.1l0.35-.87c0-.1-0.1-0.61.36-0.16m28-10.18c-0.16-1.38-.32-3.85-3.27-4.75a12.07,12.07,0,0,1-1.93-.38c-0.2.45-1.16,0.6-.84,0a20.65,20.65,0,0,0-3.92.09,4.9,4.9,0,0,0,.29-1.8,7.72,7.72,0,0,0-1.61-2.31c-1.7,0-1.8,3.3-3.3,4.94l-0.32-.22c-0.84.45-2.41,0.86-2.44,1.69s1.16,1.39,1.12,2.29c-0.06,1.25-1.06,2.34-1.51,3.79l0.13,0.49a25,25,0,0,1-1.12,3.62,1.71,1.71,0,0,1-1,1l-0.8.35a4.51,4.51,0,0,1-.26,1.22c0.7,0.93,1.35,3.08,3.31,3.08,0.68,0,1.15-.32,1.77,0l0.29-1.77a48.65,48.65,0,0,0,11.53-7.33l-0.58-.13c0.64-.51,1.15-0.93,1.34-1.12a0.75,0.75,0,0,1,.71-0.16l-0.48.52a1.23,1.23,0,0,0,.86-0.36,16.55,16.55,0,0,0,2-2.72m-1.86,2-0.26.29-0.41-.1,0.25-.29Zm-1.41-4.17c0.19,1.19-1.48,3.33-2.32,3-1.12,1.31-1.73,1.84-2.05,1.84a0.4,0.4,0,0,1-.32-0.26l-0.29.19,0.19,0.46a1,1,0,0,1-.48-0.19c-1.61,1.38-4.21,2.41-5.36,3.12,0.16-1.22.8-2.12,0.83-2.86a1.51,1.51,0,0,0-.22-0.68v0a1,1,0,0,0,.42.19c0.29,0,.35-1.45-0.17-1v0c0.2-.23.45-0.32,0.58-0.48l0-1c1.74-.54,3.73-2.28,9.15-2.28m-1.67,6.69-0.67.48a0.52,0.52,0,0,1-.67,0l1.06-.58Zm-1.18.89c-1.48.93-3.31,2.28-5.14,3.41a1.8,1.8,0,0,0-.74-0.22,0.68,0.68,0,0,1,.93-0.19,0.75,0.75,0,0,0,.36-0.54c1-.64,2.15-1.28,2.85-1.74a3.36,3.36,0,0,1,1.74-.73v0Zm-7.77,4.69a7.47,7.47,0,0,1,1.57-1.35v0a0.39,0.39,0,0,0,.06.55l-1.63.8v0Zm-0.38-.12-0.16.38-0.9.49,0.06-.32Zm32.1-13.59c0-.19-0.22,0-0.35.1-0.9.42-1.7,0.64-2.67,1-0.22-1,.67-0.25,2-1.42,0.07-.06,0-0.13-0.06-0.13-0.45-.06-1.22-0.38-1.57-0.38a4.89,4.89,0,0,0-.8.19l-0.29-.6a18.22,18.22,0,0,1-2.8-.29,4.47,4.47,0,0,0,.58-2.31,15.71,15.71,0,0,0-2.73-.61c-1.12,0-2.05,2.47-3.66,2.28a3,3,0,0,0-.45,2.44c-2.35,4.9-4.3,7.82-4.37,10.19-0.13,4.68,2.53,6.38,6.3,6.38a21.86,21.86,0,0,0,6.74-1.76,1.6,1.6,0,0,0,.9-0.71c0.16-.32-0.07-0.22-0.16-0.19-1.57.55-3.34,1.15-4.62,1.51a2.84,2.84,0,0,1-1.8-.07c1.79-.45,3.79-1,5.39-1.54,0.1,0,.16-0.09.07-0.13s-0.58-.35-0.77-0.48l2.18-.8a1.06,1.06,0,0,0,.68-0.51c0-.1-0.16-0.06-0.26,0-1.6.52-4.08,1.35-6.16,1.92-0.45.13-.61-0.64-1.09-0.58a0.53,0.53,0,0,1-.51.39l-0.19-.32c-0.94.22-2.44,0.54-3.44-.19,0-.74.77-4.26,1.61-4.62,1.61-.7,6.39-1.47,8.35-1.79l0.23-.7a0.65,0.65,0,0,1-.36-0.83c-0.68-1.15-1-1.47-1.89-1.47s-3.6,1.09-4.88,1.22c0.55-.87,1-1.61,1.35-2.18,2.83-.8,5.82-0.9,8.73-2.22,0.32-.26.9-0.45,0.84-0.77m-2.67-.1-0.58.25-0.1-.39a0.67,0.67,0,0,1,.67.13m-11.17,9.67a0.5,0.5,0,0,1,.61-0.49,4,4,0,0,1-.58.83h0v-0.35ZM136,137.43l-0.16.87a1.18,1.18,0,0,1-.09-1.19Zm9.64-.19c0.06-.1,0-0.19-0.1-0.13a26.41,26.41,0,0,1-4.14,1.28c0.39,0.6,1.51.15,2.41-.51a2.5,2.5,0,0,0,1.83-.64m-5.59-9.09-0.54.9-0.42.09,0.54-.9Zm-1.15,1.45-0.32.74-0.42.06a1.26,1.26,0,0,1,.74-0.8m-2.31,5.65-0.45,1.51-0.22-.29,0.35-1.19Zm29.47-.61c0.1-1.42-1.12-2.51-1.09-2.89a13.44,13.44,0,0,1,.52-2.54,1,1,0,0,1-.2-0.12c0.49-.29.55-3,0.52-3.21-0.61-.93.06-2.67-1.12-3.69-0.16-.13-1,0.48-0.94-0.07l0.58-.2a6.59,6.59,0,0,0-1.8-.89c-0.06.6-1,.29-1.18,0.48a23.93,23.93,0,0,0-4.27,4.34c-3,4-8.38,9.25-9.09,14.09h0.51c-0.35.83,1,1.25,1.12,2.25l2,0.87a23.21,23.21,0,0,0,1.54-3.12l-0.13-.38,0.16-.42c1.45-1,6.3-3.6,8.13-3.53a8.21,8.21,0,0,1-.06,1l-0.55-.68c-0.1.39-.19,1.51-0.29,2,0.38,0.16.38-.55,0.41-1.06l0.39,0.16c-0.06.74-.42,2.05-0.64,2.05,0-.48,0-0.89-0.19-0.89-0.19,1-.57,1.89-0.64,2.63a0.28,0.28,0,0,0,.29.33,0.31,0.31,0,0,1-.32.32l0,0.45c0.45,0,.55.26,0.52,0.9,0.51-.19,1.41.77,2.4,0.77a10.54,10.54,0,0,0,.64-2.92c-0.06.07-.38,0.23-0.35,0.1a1.43,1.43,0,0,0,.35-1.73c0.42-.39.68-1.19,0.22-1.45,0.67-.64.58-2.05,0.83-2.6,0.55-.06,1.16-0.19,1.73-0.25m-2.59-9.19c-0.36,1.44-.8,4-1.19,5l-0.54-.48a9.15,9.15,0,0,0-.54,1.89,20.48,20.48,0,0,0-3,.93,12.21,12.21,0,0,0-2.41,1.61c0.74-1.06,1.6-2.44,2.18-3.18,0.42-.51.87-1.09,1.35-1.74-0.29-.61-0.06-0.9.45-1.47a0.56,0.56,0,0,1-.06.58l0.16,0.16c1.38-1.83,2.85-3.63,3.46-3.66Zm-1.55,6,0,0.35c-0.22,0-.45,0-0.32-0.35H162Zm0-.19h-0.29l0.13-.35,0.13,0Zm-1.11,7.84-0.13.51h-0.19l0.13-.42Zm-4.53-2.38L153.85,138a6,6,0,0,1,.35-0.57c0.61-.32,1.67-1,2.09-0.71m0.38-.19c0.13-.51.41-0.58,1.12-0.61v0c-0.35.22-.83,0.42-1.12,0.58M163.09,126l-0.29.13-0.26.87h0.29Zm-8.57,10.85,0.39-.54c0.22-.1.41-0.13,0.67-0.23a2.06,2.06,0,0,1-1.06.77M182.45,122a24.93,24.93,0,0,0-2.67-.13c-4.07,0-9.28,2.63-9.47,5.26a18.23,18.23,0,0,0,.54,2.89,4.06,4.06,0,0,0,1.48,2.05c0.58-.42,1,0.07,1.83,1.22,0.58-.39,1.22,1,2,1.8v0.32a11.52,11.52,0,0,1-6.55,2.67c-0.58,0-1.41-1.12-2-1.58a2.1,2.1,0,0,0-1.06,1.67,3.11,3.11,0,0,0,.71,1.47c-0.16.58,0.13,1.35,1.41,1.61a4,4,0,0,0,2,1.25,12.34,12.34,0,0,0,3.49-.87c0-.87.52-1,1.51-0.6a12,12,0,0,0,4.69-3.28l0.54,0.13,0.19-2.57a4.64,4.64,0,0,0-1.41-3.05l-0.35.22c-1-1.06-2.32-1.51-3.69-2.47l-1.35-1v-0.48c2.8-2,4.43-2.64,7.68-2.64,0.32,0.36-.74.39-0.06,1.25,1.22-.26,2.31-1.15,2.31-1.83a0.57,0.57,0,0,0-.22-0.45,2.25,2.25,0,0,0-1.64-2.53Zm0.83,5.39a0.84,0.84,0,0,0,.52-0.77l-0.8.55Zm-6.54-.7L174.36,128c0-.51,1.22-1,2.38-1.35v0Zm-2.89,14.77-1,.32-0.16-.22,1.13-.48v0.38Zm35.73-15.86c0.22-1.32-.68-2.16-1.12-3.21a4.93,4.93,0,0,0-1.64-.61c-1.12,0-7.26,3.63-8.09,5.65h-0.22a3.63,3.63,0,0,0,.16.9h-0.38c-0.36,0-1,1.67-1.38,1.67s0.16-.48-0.26-0.48-1.7,2.15-2.38,3.5a7.21,7.21,0,0,1-.13,1.16l-0.32-.19a2.19,2.19,0,0,1-.55,1.8v0.86a2.44,2.44,0,0,0,.22,1.09,19.79,19.79,0,0,0,2.05,3.09c1-.13,1.22.68,2,0.68,0.32,0,.61.51,1,0.51a12.21,12.21,0,0,0,2.44-.45c-0.19-.22,0-0.55.39-0.68,2.12-.68,5.68-1.74,6-1.87l-0.22-.32c-0.29-.42.16-0.55,0.58-0.61l1.67-.26-0.35-.23-0.77.1-0.51-.13c-1.64.23-3.79,0.68-5.49,1a2,2,0,0,1-2.15.36c0.35-.64,2.54-1,4.08-1.35a1,1,0,0,0-1-.32c-1.93.29-4.59,1.06-5.75,1.06a0.51,0.51,0,0,1-.52-0.61c0-1.58,3.18-5.23,3.76-5.84a2.59,2.59,0,0,0,.22-0.68,18.15,18.15,0,0,0,2.48-2.34l0.19,0.32a20.18,20.18,0,0,1,2-1.79,12.29,12.29,0,0,1,4-1.77m-4.36,14.61c-0.74.23-1.61,0.38-2.22,0.65a2.22,2.22,0,0,0,.45.06,3.58,3.58,0,0,0,1.77-.68v0Zm-3,1.25c0.49,0,.84-0.19.45-0.48l-1.06.36a1.46,1.46,0,0,0,.61.12m-5.33-11.17-0.26.45-0.32-.19a0.41,0.41,0,0,1,.58-0.26m1.51,3.63-1,1.48a1.37,1.37,0,0,1,.32-1l0.39-.61Zm-1.28,1.92-0.35.71-0.19-.26,0.22-.45h0.32Zm11.59,2.7-0.42-.19-0.87.13,0.32,0.38Zm-3.09-1.22c1,0,2.06-.19,2.22-0.74a36.27,36.27,0,0,0-3.6.55,3.87,3.87,0,0,0,1.38.19m-6-5.59a1.6,1.6,0,0,1,1-.74c0,0.13,0,.26-0.68.94Zm0.13,0.38-0.26.32-0.22-.19,0.19-.32ZM196.42,131l-0.41.68-0.29-.23,0.45-.74Zm33.08,0.23c0-1.74-.41-3.34-1.67-4.17s-2.89-2.09-2.89-3.57c-1-.77-1.45-1.34-2.38-1.34-2.4,0-12.14,5-12.14,12.84,0,1.54.26,3.12,1,3.73a34.22,34.22,0,0,0,3.34,2.47,1.16,1.16,0,0,1,1.63,0c0.9-.29,1.51-0.51,2.28-0.77s0.26-1,.77-1.28l0.9,0.54,0.58-.19a1.75,1.75,0,0,1-.26-0.35,7.69,7.69,0,0,0,1.7-.35c0.87-.41.42-0.77,1.25-1.28l0.35,0.33a11.14,11.14,0,0,1,1-1.29c0.38-.09.93,0.07,0.93-0.42a1,1,0,0,1,.93-0.64c-0.19-.35,0-0.48.25-0.54l0.23,0.42a0.46,0.46,0,0,0,.42-0.67,4.67,4.67,0,0,0,1.7-3.44m-8.31,7.45a0.68,0.68,0,0,1-.54.06,0.84,0.84,0,0,1,.06-0.38c0.32,0,.48.1,0.48,0.32m4.94-8.52-1.45,1.89a7.22,7.22,0,0,1-2.63,1.7l-5.78,2.41a9.5,9.5,0,0,1-2.28.35c0.71-2.21,1.76-4,3.31-4.78,1.35-2.12,4.3-4.08,6-4.08a0.64,0.64,0,0,0,.38.25,0.54,0.54,0,0,0,.35-0.19c0.13-.13.19,0.06,0.29,0.36Zm-3.53,7.58-0.94.48c0-.35.19-0.51,0.77-0.8Zm-7-5.17a0.37,0.37,0,0,1-.39-0.38,0.81,0.81,0,0,1,1.12-.52Zm-0.1,7.87a0.73,0.73,0,0,1,.39-0.19,0.74,0.74,0,0,1,.58.36Zm8.06-3.28-0.64.39-0.13-.36,0.51-.54c0.1,0.06.16,0.42,0.25,0.51m34.49-9.54a9.79,9.79,0,0,0-1.15-3.41,4.27,4.27,0,0,0-2.05-1.06c-0.71,0-2.86,1.1-4.56,2.16a0.75,0.75,0,0,1-.29.9,0.57,0.57,0,0,0-.68-0.33c-1,.58-2.31,1.67-3.34,2.38a5.44,5.44,0,0,1-.26-2.8c-0.74-1.8-1.38-4-3.18-4-1.15,0-2.47,1.86-3.08,2.79-2.19,1.64-3.83,4.12-5.49,6.78-1.48,2.31-4.17,6.58-4.17,7.35s1.82,3,3.15,3a0.8,0.8,0,0,0,.51-0.19,2.61,2.61,0,0,1,0-1.8c0.23-.61.49-1.15,0.83-1.06-0.22.45-.48,1-0.16,1.12,1.38-2.5,3.21-5.87,4.56-8.06a18.09,18.09,0,0,1,3.37-4.11l0.32,0.64a56.47,56.47,0,0,0-2.05,5.33c0.32,1.06.8,2.63,1.64,2.63,0.68,0,1.06-.55,1.61.19l5.69-4.85c0.1-1,2.38-1.74,3.31-2.31l0.09,0.26c-1.15,2.54-3.79,7.26-3.79,8.57,0,1.16,1.41,3.22,2.63,3.22a0.79,0.79,0,0,0,.32,0,0.6,0.6,0,0,0,.26-0.12l0.54,0.48c0.55-1.25,1.35-2.63,1.35-3.37a2.92,2.92,0,0,0-.48-1.12l0.19-.19,0.22,0.29c0.13-.42,0-1,0.49-1a1.21,1.21,0,0,0,.77-1l0.44-1.61-0.19-.51-0.67,2.05-0.39.2,0.9-2.83a0.82,0.82,0,0,0,.9-0.41,0.78,0.78,0,0,1-.74-0.55h0.52c0.16-.35.48-1.86,1.19-1.63s1-1,1-2m-2.25,2.44a0.91,0.91,0,0,1-.55.74l0.36-1Zm-1.7,4.57h0a3.17,3.17,0,0,1-.06-0.55,4.44,4.44,0,0,1,1.06-2.48h0Zm1.58-5c0.25-.58.29-1,0.74-1l-0.38,1h-0.35Zm-2,5c0.29,0.13.13,0.74-.13,0.94,0-.07,0-0.23,0-0.39a1.1,1.1,0,0,1,.16-0.54m-18.89,2.77-0.35.68-0.19-.2,0.35-.61Zm22-6.83a1.75,1.75,0,0,0-.61.64h0.36Zm-21.74,5.89c0.22,0.16.07,0.29-.1,0.61l-0.19-.16Zm41.81-11.39c0-.19-0.22,0-0.36.1-0.89.42-1.7,0.64-2.66,1-0.22-1,.67-0.25,2-1.42a0.07,0.07,0,0,0-.06-0.13c-0.45-.06-1.22-0.38-1.58-0.38a5,5,0,0,0-.8.19l-0.29-.6a18,18,0,0,1-2.79-.29,4.52,4.52,0,0,0,.58-2.31,15.84,15.84,0,0,0-2.73-.61c-1.13,0-2.06,2.47-3.66,2.28a3,3,0,0,0-.45,2.44c-2.34,4.9-4.3,7.82-4.36,10.19-0.13,4.68,2.53,6.38,6.29,6.38a21.89,21.89,0,0,0,6.74-1.76,1.6,1.6,0,0,0,.9-0.71c0.16-.32-0.06-0.22-0.16-0.19-1.58.55-3.34,1.15-4.62,1.51a2.85,2.85,0,0,1-1.8-.07c1.8-.45,3.78-1,5.39-1.54,0.1,0,.16-0.09.06-0.13s-0.58-.35-0.77-0.48l2.18-.8a1.1,1.1,0,0,0,.68-0.51c0-.1-0.16-0.06-0.26,0-1.61.52-4.08,1.35-6.16,1.92-0.45.13-.61-0.64-1.09-0.58a0.54,0.54,0,0,1-.52.39l-0.19-.32c-0.93.22-2.44,0.54-3.43-.19,0-.74.77-4.26,1.61-4.62,1.6-.7,6.39-1.47,8.35-1.79l0.22-.7a0.65,0.65,0,0,1-.35-0.83c-0.67-1.15-1-1.47-1.89-1.47s-3.59,1.09-4.88,1.22c0.55-.87,1-1.61,1.35-2.18,2.83-.8,5.81-0.9,8.73-2.22,0.33-.26.9-0.45,0.84-0.77m-2.67-.1-0.57.25-0.1-.39a0.67,0.67,0,0,1,.67.13M263,134.71a0.5,0.5,0,0,1,.61-0.49,3.88,3.88,0,0,1-.57.83h0v-0.35Zm-0.33,2.73-0.16.87a1.19,1.19,0,0,1-.09-1.19Zm9.64-.19c0.06-.1,0-0.19-0.1-0.13a26.76,26.76,0,0,1-4.15,1.28c0.39,0.6,1.51.15,2.41-.51a2.49,2.49,0,0,0,1.83-.64m-5.59-9.09-0.55.9-0.42.09,0.55-.9Zm-1.15,1.45-0.32.74-0.42.06a1.24,1.24,0,0,1,.74-0.8m-2.32,5.65-0.45,1.51-0.23-.29,0.36-1.19Zm34.43-14.65c-3,0-1.57,3.06-4.82,3.72a25.45,25.45,0,0,1-6.2.13,1.45,1.45,0,0,0-.45,1.06,7,7,0,0,0,1.06,3.11c1,0.25,1.12-.19,2.54-0.19h2.51c-1.61,3.66-3.44,8.42-3.44,9.22a1.24,1.24,0,0,0,.26.67c0.13,1.25.06,2.35,0.9,2.63l-0.13.36a7.18,7.18,0,0,0,2.09.16,46.77,46.77,0,0,1,1.51-4.79,0.5,0.5,0,0,0-.61.32l-0.26-.16c0.23-.55.45-1.13,0.74-1.74,0.13,0.25-.07.87,0.26,0.87a2.13,2.13,0,0,0,.55-1.13,2.46,2.46,0,0,0-.19-0.93c0.16-.51.19-1.22,0.54-1.28,0.19,0-.13.61,0.22,0.64s0.8-1.26,1-1.93l-0.29-.16a2.4,2.4,0,0,0,.67-0.83c0.68-2,1-2.44,2.12-2.57a0.77,0.77,0,0,1,.71-0.38v0.35h0.45c2.67-1.16,5.49-.9,7.42-1.28a0.62,0.62,0,0,1-.06-0.26A0.22,0.22,0,0,1,307,126a1.06,1.06,0,0,1,.45.13l0.06,0.19a2.83,2.83,0,0,0,.51-0.22,1.44,1.44,0,0,1,0-1.8c-0.42-1.16-1.54-1.74-2.92-2.09-1.48.2-3.86,0.71-6,1.16Zm-2.54,11.33-0.25.58-0.19-.23,0.32-.57Zm23.64-2.37c1.19-1,2.08-1.93,3-2.7a1.65,1.65,0,0,0,.41-1.12,2.23,2.23,0,0,0-.89-1.8c-0.06.35-.35,0.35-0.61,0.16a1.12,1.12,0,0,0,.26-0.45l-0.61-.26c0,0.42-.52.42-1,0.29l0.22-.51a6.4,6.4,0,0,0-1.83-.23,9.66,9.66,0,0,0-3.41.93c-0.48-1,.39-3.24-2.25-3.24-3.14,4.72-8.41,16.28-8.41,17.95,0,0.61,1.06.32,0.29,0.84l0.49,1.31a2,2,0,0,0,1.7,1.19c0.71-.71,1.57-1.22,1.77-1.93s-0.45-1.45-.25-1.86a27,27,0,0,1,2.6-5c1.92,1,6.23,7.13,7.8,8.67a9.27,9.27,0,0,0,3.44,1.83c2.41,0,5.46-1.6,7.16-3.18a1.7,1.7,0,0,0-.32-0.42,16,16,0,0,1-3.6,2.05c-0.16,0-.55-0.13-0.29-0.22a12.28,12.28,0,0,0,2.73-1.34c0.19-.13-0.45-0.19-0.87-0.19l-0.06-.06c0.61-.23,1.19-0.39,1.8-0.55a2.74,2.74,0,0,0-1.12-.8,15.16,15.16,0,0,1-3.82.64c-3.11,0-6.48-4.56-9.53-7.36,1-.9,1.9-1.44,2.37-0.77,1.64-1,1.12-1.38,2.51-2.25Zm0.35-6.17-0.16.22-1-.15a1.82,1.82,0,0,1,1.19-.07M324,142a0.55,0.55,0,0,0,.32.23v0a11.2,11.2,0,0,1-1.8.48c-0.74-.23-0.42-0.55,0-0.42Zm-8.48-10.36c-0.16-.32-0.7-0.13-1.06.13l0.19,0.29Zm-7.26,4.23-0.93,1.83-0.16-.39,0.93-1.7Zm36.83-10.21c-0.67-.06-0.77-0.77-0.8-1.54a5.46,5.46,0,0,0-.25-1.64,3.51,3.51,0,0,1-.93-0.51,1.78,1.78,0,0,0-.71-0.48,0.44,0.44,0,0,0-.52.35,30.49,30.49,0,0,1-1.28,3.5c0.52-.07.65,0.22,0.36,0.38s-0.81,0-.9.32c-2.63,5.46-5.56,10.34-12.11,10.34,0.09-.25.22-0.58,0.35-0.9a0.38,0.38,0,0,1-.42-0.39,4,4,0,0,1,.58-1.44l0.19,0.19a0.88,0.88,0,0,0-.06.93c0.19-.45.45-1.06,0.67-1.54h0a0.56,0.56,0,0,1-.57.13,0.74,0.74,0,0,1,.77-0.54c0.16-.38.32-0.7,0.45-1,0.32-.67-0.48-1.25.29-2.38,0.13-.19.57,0.16,0.26,0.26a0.76,0.76,0,0,0,0,.87c0.83-1.83,2.18-4.62,3.11-6.32v-0.74l-0.44.32c-0.26-.68-1.26-3.28-2-3.31a1.57,1.57,0,0,0-1,.45c-1.19,2.7-3.6,8.47-5.07,11.68a9.35,9.35,0,0,0-.87,3.82,4.25,4.25,0,0,0,1.86,3.76l0.35-.16c0.45,0.55.87,1.41,1.77,1.41,0.23,0,.19-0.1.16-0.17s0-.16.19-0.16,0.22,0.06.22,0.16a0.21,0.21,0,0,0,.26.17c1.86,0,8.48-1,13-9.25a0.69,0.69,0,0,0-.06-0.77,33.4,33.4,0,0,1-2.22,3.18l-0.26-.33c2-2.43,2.06-3.3,2.67-3.27l0.35-.67c-0.42,0,.1-1.07.52-1.83l0.45,0.22c0.38,0,.64-0.45.42-0.58-0.77-.51.13-1,0.77-0.93Zm-13.84,1.7c0.32,0.32-.22,1.48-0.45,1.8l-0.41-.25a0.32,0.32,0,0,1,.06-0.23Zm-0.89,13.1a0.58,0.58,0,0,1-.52-0.19c-0.32-.39.84-0.65,1.25,0.09a5.56,5.56,0,0,1-.73.09m9.15-5.52-0.9,1c-0.32-.42.09-0.84,0.58-1.31Zm-2.73,2.89a15.62,15.62,0,0,1-2.37,1.51l-0.07-.33c1.12-.61,1.67-1.21,2.44-1.18M334,139.62a7.72,7.72,0,0,1-1.86.68c-0.07-.74.7-0.64,1.25-0.84a0.49,0.49,0,0,1,.61.16M363,125.13c0-.19-0.22,0-0.36.1-0.9.42-1.7,0.64-2.66,1-0.22-1,.68-0.25,2-1.42,0.06-.06,0-0.13-0.06-0.13-0.45-.06-1.22-0.38-1.57-0.38a4.91,4.91,0,0,0-.8.19l-0.29-.6a18.19,18.19,0,0,1-2.79-.29,4.52,4.52,0,0,0,.58-2.31,15.82,15.82,0,0,0-2.73-.61c-1.12,0-2.05,2.47-3.66,2.28a3,3,0,0,0-.45,2.44c-2.34,4.9-4.3,7.82-4.36,10.19-0.13,4.68,2.53,6.38,6.29,6.38a21.89,21.89,0,0,0,6.75-1.76,1.61,1.61,0,0,0,.9-0.71c0.16-.32-0.06-0.22-0.16-0.19-1.58.55-3.34,1.15-4.62,1.51a2.84,2.84,0,0,1-1.8-.07c1.79-.45,3.79-1,5.39-1.54,0.1,0,.16-0.09.06-0.13s-0.57-.35-0.77-0.48l2.18-.8a1.09,1.09,0,0,0,.67-0.51c0-.1-0.16-0.06-0.25,0-1.61.52-4.08,1.35-6.16,1.92-0.45.13-.61-0.64-1.1-0.58a0.53,0.53,0,0,1-.51.39l-0.19-.32c-0.93.22-2.44,0.54-3.44-.19,0-.74.77-4.26,1.61-4.62,1.6-.7,6.39-1.47,8.35-1.79l0.22-.7a0.65,0.65,0,0,1-.35-0.83c-0.68-1.15-1-1.47-1.9-1.47s-3.6,1.09-4.88,1.22c0.55-.87,1-1.61,1.35-2.18,2.83-.8,5.81-0.9,8.73-2.22,0.32-.26.9-0.45,0.83-0.77m-2.66-.1-0.58.25-0.1-.39a0.68,0.68,0,0,1,.68.13m-11.17,9.67a0.49,0.49,0,0,1,.6-0.49,3.74,3.74,0,0,1-.57.83h0v-0.35Zm-0.33,2.73-0.16.87a1.19,1.19,0,0,1-.09-1.19Zm9.64-.19c0.06-.1,0-0.19-0.09-0.13a26.72,26.72,0,0,1-4.14,1.28c0.39,0.6,1.51.15,2.41-.51a2.48,2.48,0,0,0,1.83-.64m-5.59-9.09-0.54.9-0.42.09,0.54-.9Zm-1.16,1.45-0.32.74-0.42.06a1.26,1.26,0,0,1,.74-0.8m-2.31,5.65-0.45,1.51-0.22-.29,0.35-1.19Z"/></svg>